<svg width="1284" height="2778" viewBox="0 0 1284 2778" xmlns="http://www.w3.org/2000/svg">
  <!-- Background -->
  <rect width="1284" height="2778" fill="#E53935"/>

  <!-- Subtle pattern -->
  <defs>
    <pattern id="dots" x="0" y="0" width="40" height="40" patternUnits="userSpaceOnUse">
      <circle cx="20" cy="20" r="2" fill="#FF5252" opacity="0.3"/>
    </pattern>
  </defs>
  <rect width="1284" height="2778" fill="url(#dots)"/>

  <!-- Tomato shadow -->
  <ellipse cx="642" cy="1850" rx="280" ry="35" fill="#C62828" opacity="0.3"/>

  <!-- Main tomato body -->
  <ellipse cx="642" cy="1750" rx="240" ry="220" fill="#FF5252"/>
  <ellipse cx="642" cy="1720" rx="240" ry="220" fill="#FF6B6B"/>

  <!-- Tomato highlight -->
  <ellipse cx="530" cy="1620" rx="70" ry="50" fill="#FF8A80" opacity="0.6"/>

  <!-- Stem -->
  <path d="M642 1540 L642 1590" stroke="#4CAF50" stroke-width="18" stroke-linecap="round"/>
  <path d="M614 1555 L670 1555" stroke="#4CAF50" stroke-width="14" stroke-linecap="round"/>
  <path d="M624 1542 L660 1542" stroke="#66BB6A" stroke-width="10" stroke-linecap="round"/>

  <!-- Sepals -->
  <path d="M642 1570 Q580 1535 545 1570 Q580 1605 642 1570" fill="#4CAF50"/>
  <path d="M642 1570 Q700 1535 735 1570 Q700 1605 642 1570" fill="#4CAF50"/>
  <path d="M642 1570 Q615 1520 642 1500 Q665 1520 642 1570" fill="#66BB6A"/>

  <!-- Timer display -->
  <rect x="522" y="1660" width="240" height="100" rx="14" fill="#FFFFFF"/>
  <text x="642" y="1735" font-family="Arial, sans-serif" font-size="60" font-weight="bold" fill="#C62828" text-anchor="middle">25:00</text>

  <!-- App name -->
  <text x="642" y="2100" font-family="Arial, sans-serif" font-size="72" font-weight="bold" fill="#FFFFFF" text-anchor="middle">Pomodoro Timer</text>
  <text x="642" y="2180" font-family="Arial, sans-serif" font-size="36" fill="#FF8A80" text-anchor="middle">Focus. Work. Rest.</text>
</svg>